<svg width="119" height="46" viewBox="0 0 119 46" fill="none" xmlns="http://www.w3.org/2000/svg">
<path d="M43.125 42.1748V18.1456L58.5553 4.43156L73.875 17.3307V42.1748H58.5H43.125Z" stroke="#F54C34" stroke-width="6.25"/>
<path d="M0.542039 45.2998C0.265897 45.2998 0.0420384 45.0759 0.0420384 44.7998V40.0639C0.0420384 39.9598 0.0745426 39.8582 0.135015 39.7735L20.9596 10.5858C21.1958 10.2548 20.9592 9.79541 20.5526 9.79541H0.500001C0.223858 9.79541 0 9.57155 0 9.29541V2.7998C0 2.52366 0.223858 2.2998 0.5 2.2998H32.458C32.7341 2.2998 32.958 2.52366 32.958 2.7998V7.53559C32.958 7.63979 32.9254 7.74138 32.8648 7.82618L12.02 37.0136C11.7837 37.3445 12.0202 37.8042 12.4269 37.8042H32.5C32.7761 37.8042 33 38.0281 33 38.3042V44.7998C33 45.0759 32.7761 45.2998 32.5 45.2998H0.542039Z" fill="black"/>
<path d="M118.5 2.2998C118.776 2.2998 119 2.52366 119 2.7998V44.7998C119 45.0759 118.776 45.2998 118.5 45.2998H111.625C111.458 45.2998 111.303 45.217 111.21 45.0789L93.213 18.3242C93.1758 18.269 93.1136 18.2358 93.047 18.2358C92.9366 18.2358 92.8471 18.3254 92.8471 18.4358V44.7998C92.8471 45.0759 92.6232 45.2998 92.3471 45.2998H84.5C84.2239 45.2998 84 45.0759 84 44.7998V2.7998C84 2.52366 84.2239 2.2998 84.5 2.2998H91.4968C91.6639 2.2998 91.8199 2.38321 91.9126 2.5221L109.755 29.2362C109.799 29.3028 109.874 29.3428 109.954 29.3428C110.087 29.3428 110.194 29.2355 110.194 29.1031V2.79981C110.194 2.52366 110.418 2.2998 110.694 2.2998H118.5Z" fill="black"/>
</svg>
