<svg width="118" height="46" viewBox="0 0 118 46" fill="none" xmlns="http://www.w3.org/2000/svg">
<path d="M43.125 42.575V18.5458L58.5553 4.83176L73.875 17.7309V42.575H58.5H43.125Z" stroke="#F54C34" stroke-width="6.25"/>
<path d="M0.542039 45.7C0.265897 45.7 0.0420384 45.4761 0.0420384 45.2V40.4641C0.0420384 40.36 0.0745426 40.2584 0.135015 40.1737L20.9596 10.986C21.1958 10.655 20.9592 10.1956 20.5526 10.1956H0.500001C0.223858 10.1956 0 9.97175 0 9.69561V3.2C0 2.92386 0.223858 2.7 0.5 2.7H32.458C32.7341 2.7 32.958 2.92386 32.958 3.2V7.93579C32.958 8.03999 32.9254 8.14158 32.8648 8.22638L12.02 37.4138C11.7837 37.7447 12.0202 38.2044 12.4269 38.2044H32.5C32.7761 38.2044 33 38.4283 33 38.7044V45.2C33 45.4761 32.7761 45.7 32.5 45.7H0.542039Z" fill="white"/>
<path d="M117.5 2.7C117.776 2.7 118 2.92386 118 3.2V45.2C118 45.4761 117.776 45.7 117.5 45.7H110.625C110.458 45.7 110.303 45.6172 110.21 45.4791L92.213 18.7244C92.1758 18.6692 92.1136 18.636 92.047 18.636C91.9366 18.636 91.8471 18.7256 91.8471 18.836V45.2C91.8471 45.4761 91.6232 45.7 91.3471 45.7H83.5C83.2239 45.7 83 45.4761 83 45.2V3.2C83 2.92386 83.2239 2.7 83.5 2.7H90.4968C90.6639 2.7 90.8199 2.78341 90.9126 2.9223L108.755 29.6364C108.799 29.703 108.874 29.743 108.954 29.743C109.087 29.743 109.194 29.6357 109.194 29.5033V3.20001C109.194 2.92386 109.418 2.7 109.694 2.7H117.5Z" fill="white"/>
</svg>
